<?xml version="1.0" standalone="no"?><!DOCTYPE svg PUBLIC "-//W3C//DTD SVG 1.1//EN" "http://www.w3.org/Graphics/SVG/1.1/DTD/svg11.dtd"><svg t="1553683985901" class="icon" style="" viewBox="0 0 1000 1000" version="1.1" xmlns="http://www.w3.org/2000/svg" p-id="4605" xmlns:xlink="http://www.w3.org/1999/xlink" width="200" height="200"><defs><style type="text/css"></style></defs><path d="M500 0c276.1563 0 500 223.8438 500 500s-223.8438 500-500 500-500-223.8438-500-500 223.8438-500 500-500zM500 906.25c224.375 0 406.25-181.875 406.25-406.25s-181.875-406.25-406.25-406.25-406.25 181.875-406.25 406.25 181.875 406.25 406.25 406.25zM205.8125 455.8125l250-250c24.4063-24.4063 63.9688-24.4063 88.375 0s24.4063 63.9688 0 88.375l-143.3125 143.3125h349.125c34.5313 0 62.5 27.9688 62.5 62.5s-27.9688 62.5-62.5 62.5h-349.125l143.3125 143.3125c24.4063 24.4063 24.4063 63.9688 0 88.4063-12.2188 12.1875-28.1875 18.3125-44.1875 18.3125s-32-6.0938-44.1875-18.3125l-250-250c-24.4063-24.4063-24.4063-63.9688 0-88.375z" p-id="4606"></path></svg>