<?xml version="1.0" standalone="no"?><!DOCTYPE svg PUBLIC "-//W3C//DTD SVG 1.1//EN" "http://www.w3.org/Graphics/SVG/1.1/DTD/svg11.dtd"><svg t="1553671708691" class="icon" style="" viewBox="0 0 1024 1024" version="1.1" xmlns="http://www.w3.org/2000/svg" p-id="3886" xmlns:xlink="http://www.w3.org/1999/xlink" width="200" height="200"><defs><style type="text/css"></style></defs><path d="M1012.037594 957.518554 739.729498 685.387021C800.16823 612.904973 836.591642 519.732774 836.591642 418.011744 836.591642 187.148301 649.317165 0 418.296435 0 187.275706 0 0 187.148301 0 418.011744 0 648.872749 187.276928 836.023488 418.297658 836.023488 520.09223 836.023488 613.32903 799.619002 685.859181 739.22096L958.169722 1011.354938C965.609933 1018.792461 975.356186 1022.509395 985.104877 1022.509395 994.853574 1022.509395 1004.602272 1018.792461 1012.037594 1011.354938 1026.920461 996.49696 1026.920461 972.393613 1012.037594 957.518554L1012.037594 957.518554ZM418.296435 759.881843C229.659846 759.881843 76.194618 606.517754 76.194618 418.011744 76.194618 229.505734 229.659846 76.144083 418.296435 76.144083 606.930573 76.144083 760.400691 229.505734 760.400691 418.011744 760.400691 606.517754 606.931795 759.881843 418.296435 759.881843L418.296435 759.881843Z" p-id="3887"></path></svg>