<?xml version="1.0" standalone="no"?><!DOCTYPE svg PUBLIC "-//W3C//DTD SVG 1.1//EN" "http://www.w3.org/Graphics/SVG/1.1/DTD/svg11.dtd"><svg t="1553477135414" class="icon" style="" viewBox="0 0 1024 1024" version="1.1" xmlns="http://www.w3.org/2000/svg" p-id="2525" xmlns:xlink="http://www.w3.org/1999/xlink" width="200" height="200"><defs><style type="text/css"></style></defs><path d="M88.788328 66.71444l24.221574-24.221574 822.190304 822.190304-24.221574 24.221574-822.190304-822.190304ZM821.127454 616.648196l0-259.780182c0-126.327235-103.041914-242.851476-231.243074-277.611592l0-2.175398c0-42.488773-34.592251-77.081024-77.081024-77.081024s-77.081024 34.592251-77.081024 77.081024l0 2.175398c-51.320547 13.917407-98.425617 41.082473-136.698915 76.579142l543.883709 543.883709C830.428564 679.410993 821.127454 652.511428 821.127454 616.648196zM204.479257 356.868014l0 259.780182c0 98.024795-68.751135 130.876728-84.876486 137.233343-11.709464 5.988339-19.772139 18.098625-19.772139 32.183898 0 19.97255 16.159609 36.132159 36.132159 36.132159l258.140925 0c5.520715 61.022478 56.272574 109.198119 118.699639 109.198119s113.178925-48.17564 118.699639-109.198119l140.111035 0L220.503546 271.088824C210.267186 298.555363 204.479257 327.426489 204.479257 356.868014zM562.484646 822.197596c-5.018831 23.08491-25.09073 40.681651-49.68129 40.681651s-44.629914-17.564196-49.647031-40.681651L562.484646 822.197596z" p-id="2526" fill="#8a8a8a"></path></svg>