<?xml version="1.0" standalone="no"?><!DOCTYPE svg PUBLIC "-//W3C//DTD SVG 1.1//EN" "http://www.w3.org/Graphics/SVG/1.1/DTD/svg11.dtd"><svg t="1553219823085" class="icon" style="" viewBox="0 0 1024 1024" version="1.1" xmlns="http://www.w3.org/2000/svg" p-id="2524" xmlns:xlink="http://www.w3.org/1999/xlink" width="200" height="200"><defs><style type="text/css"></style></defs><path d="M833.63306441 560.56165898h-273.37827345v273.42187669c0 26.64486504-21.6099259 48.23340069-48.25561367 48.23340069-26.64486504 0-48.25479096-21.58853563-48.25479095-48.23340069v-273.42187669h-273.37991887c-26.66707802 0-48.25479096-21.58853563-48.25479095-48.2334007 0-26.63499262 21.59018106-48.23340069 48.25479095-48.23340069h273.37827347v-273.42187669c0-26.63499262 21.6099259-48.23340069 48.25479095-48.23340069 26.64568776 0 48.25561366 21.59923078 48.25561366 48.23340069v273.4226994h273.37827346c26.66707802 0 48.25561366 21.59758537 48.25561366 48.23175527-0.00082271 26.64486504-21.58853563 48.23175529-48.25561366 48.2317553z" p-id="2525"></path></svg>