<?xml version="1.0" standalone="no"?><!DOCTYPE svg PUBLIC "-//W3C//DTD SVG 1.1//EN" "http://www.w3.org/Graphics/SVG/1.1/DTD/svg11.dtd"><svg t="1553478536223" class="icon" style="" viewBox="0 0 1024 1024" version="1.1" xmlns="http://www.w3.org/2000/svg" p-id="18767" xmlns:xlink="http://www.w3.org/1999/xlink" width="200" height="200"><defs><style type="text/css"></style></defs><path d="M515.413333 174.08c-187.733333 0-339.057778 152.462222-339.057777 339.057778S327.68 853.333333 515.413333 853.333333s339.057778-152.462222 339.057778-339.057777-152.462222-340.195556-339.057778-340.195556z m0 645.12c-168.391111 0-304.924444-136.533333-304.924444-304.924444s136.533333-304.924444 304.924444-304.924445 304.924444 136.533333 304.924445 304.924445S683.804444 819.2 515.413333 819.2z" fill="#707070" p-id="18768"></path><path d="M634.88 366.364444l-167.253333 86.471112c-3.413333 1.137778-5.688889 4.551111-6.826667 6.826666L367.502222 637.155556c-3.413333 6.826667-2.275556 14.791111 3.413334 20.48 3.413333 3.413333 7.964444 4.551111 12.515555 4.551111 2.275556 0 5.688889-1.137778 7.964445-2.275556l175.217777-87.608889c3.413333-1.137778 5.688889-4.551111 7.964445-7.964444L659.911111 387.982222c3.413333-6.826667 2.275556-14.791111-3.413333-19.342222-6.826667-4.551111-14.791111-5.688889-21.617778-2.275556z m-91.022222 178.631112l-121.742222 61.44 65.991111-125.155556L605.297778 420.977778l-61.44 124.017778z" fill="#707070" p-id="18769"></path></svg>