<?xml version="1.0" standalone="no"?><!DOCTYPE svg PUBLIC "-//W3C//DTD SVG 1.1//EN" "http://www.w3.org/Graphics/SVG/1.1/DTD/svg11.dtd"><svg t="1553596098737" class="icon" style="" viewBox="0 0 1024 1024" version="1.1" xmlns="http://www.w3.org/2000/svg" p-id="25186" xmlns:xlink="http://www.w3.org/1999/xlink" width="200" height="200"><defs><style type="text/css"></style></defs><path d="M522.24 1021.952c-276.48 0-501.76-225.28-501.76-501.76s225.28-501.76 501.76-501.76S1024 243.712 1024 520.192s-225.28 501.76-501.76 501.76z m0-942.08c-243.712 0-440.32 198.656-440.32 440.32 0 243.712 196.608 440.32 440.32 440.32s440.32-196.608 440.32-440.32c0-241.664-196.608-440.32-440.32-440.32z" fill="#E6B178" p-id="25187"></path><path d="M270.336 370.688a79.872 79.872 0 1 0 159.744 0 79.872 79.872 0 1 0-159.744 0zM616.448 370.688a79.872 79.872 0 1 0 159.744 0 79.872 79.872 0 1 0-159.744 0zM522.24 864.256c-178.176 0-323.584-139.264-323.584-311.296v-30.72h645.12v30.72c2.048 172.032-143.36 311.296-321.536 311.296zM262.144 585.728c16.384 122.88 126.976 219.136 260.096 219.136s243.712-96.256 260.096-219.136H262.144z" fill="#E6B178" p-id="25188"></path></svg>