<?xml version="1.0" standalone="no"?><!DOCTYPE svg PUBLIC "-//W3C//DTD SVG 1.1//EN" "http://www.w3.org/Graphics/SVG/1.1/DTD/svg11.dtd"><svg t="1553491928698" class="icon" style="" viewBox="0 0 1024 1024" version="1.1" xmlns="http://www.w3.org/2000/svg" p-id="1271" xmlns:xlink="http://www.w3.org/1999/xlink" width="200" height="200"><defs><style type="text/css"></style></defs><path d="M522.24 1007.616C245.76 1007.616 20.48 782.336 20.48 505.856S245.76 4.096 522.24 4.096 1024 229.376 1024 505.856 798.72 1007.616 522.24 1007.616z m0-942.08C278.528 65.536 81.92 262.144 81.92 505.856s196.608 440.32 440.32 440.32S962.56 749.568 962.56 505.856 765.952 65.536 522.24 65.536z" p-id="1272"></path><path d="M403.456 444.416c32.768 34.816 30.72 88.064-4.096 120.832-10.24-12.288-26.624-28.672-57.344-63.488l61.44-57.344zM587.776 782.336L552.96 733.184c75.776-51.2 120.832-139.264 120.832-229.376 0-90.112-40.96-172.032-112.64-225.28l36.864-49.152c86.016 63.488 137.216 165.888 137.216 274.432 0 110.592-55.296 215.04-147.456 278.528z" p-id="1273"></path><path d="M495.616 677.888l-30.72-53.248c43.008-24.576 69.632-69.632 69.632-118.784 0-47.104-24.576-90.112-63.488-116.736l32.768-51.2c57.344 36.864 92.16 100.352 92.16 167.936 0 71.68-38.912 137.216-100.352 172.032z" p-id="1274"></path></svg>