<?xml version="1.0" standalone="no"?><!DOCTYPE svg PUBLIC "-//W3C//DTD SVG 1.1//EN" "http://www.w3.org/Graphics/SVG/1.1/DTD/svg11.dtd"><svg t="1553596085625" class="icon" style="" viewBox="0 0 1024 1024" version="1.1" xmlns="http://www.w3.org/2000/svg" p-id="24998" xmlns:xlink="http://www.w3.org/1999/xlink" width="200" height="200"><defs><style type="text/css"></style></defs><path d="M165.415 334.533a5.908 5.908 0 0 0-5.907 5.908v425.393a5.908 5.908 0 0 0 5.12 5.848l695.138 96.926a5.908 5.908 0 0 0 6.696-5.868V437.366a5.908 5.908 0 0 0-5.12-5.848l-695.139-96.946a5.908 5.908 0 0 0-0.788-0.04z m6.066-38.99l695.138 96.925a45.292 45.292 0 0 1 39.227 44.878V862.76a45.292 45.292 0 0 1-51.357 44.899L159.35 810.732a45.292 45.292 0 0 1-39.227-44.878V340.44a45.292 45.292 0 0 1 51.358-44.899z m93.912-30.878c-22.922-2.836-23.08-35.998-0.197-39.05l581.475-77.805a45.292 45.292 0 0 1 51.298 44.899v128.276a19.692 19.692 0 0 1-22.114 19.534l-610.462-75.854z m593.192 34.028V192.709a5.908 5.908 0 0 0-6.696-5.868L421.691 244.4l436.894 54.292z" fill="#2C81DD" p-id="24999"></path></svg>