<?xml version="1.0" standalone="no"?><!DOCTYPE svg PUBLIC "-//W3C//DTD SVG 1.1//EN" "http://www.w3.org/Graphics/SVG/1.1/DTD/svg11.dtd"><svg t="1553596074045" class="icon" style="" viewBox="0 0 1024 1024" version="1.1" xmlns="http://www.w3.org/2000/svg" p-id="24827" xmlns:xlink="http://www.w3.org/1999/xlink" width="200" height="200"><defs><style type="text/css"></style></defs><path d="M336.384 403.456L56.32 697.344 74.24 834.56h871.424l15.36-69.632L727.552 560.64 601.088 714.752l2.048 21.504-9.216-12.288c0.512-0.512-257.536-320.512-257.536-320.512z" fill="#2C81DD" p-id="24828"></path><path d="M935.424 229.376H88.576c-20.48 0-37.376 15.872-37.376 35.328v563.712c0 19.456 16.896 35.328 37.376 35.328h846.336c20.48 0 37.376-15.872 37.376-35.328V264.704c0.512-19.456-16.384-35.328-36.864-35.328zM923.648 821.76H100.352V271.872h823.296V821.76z" fill="#2C81DD" p-id="24829"></path></svg>