<?xml version="1.0" standalone="no"?><!DOCTYPE svg PUBLIC "-//W3C//DTD SVG 1.1//EN" "http://www.w3.org/Graphics/SVG/1.1/DTD/svg11.dtd"><svg t="1553478580529" class="icon" style="" viewBox="0 0 1024 1024" version="1.1" xmlns="http://www.w3.org/2000/svg" p-id="20228" xmlns:xlink="http://www.w3.org/1999/xlink" width="200" height="200"><defs><style type="text/css"></style></defs><path d="M571.997977 984.953705c-109.104907 0-245.992577-0.102331-262.984576-0.12689-0.058328 0-0.116657-0.001023-0.174985-0.001023-41.812291-0.496304-91.994204-15.510252-130.963751-39.183418-48.601928-29.523407-75.28566-69.261457-75.137281-111.89137 0-46.548152 23.602557-91.598184 70.15378-133.836171 46.192042-41.913599 114.811886-82.033341 209.770608-122.642225 1.36509-1.65264 3.889587-8.008394 4.122901-19.330254 0.334621-16.228613-4.145413-29.638017-6.719028-32.516578-1.87572-1.412163-3.437286-3.199878-4.583388-5.251607-0.455371-0.811482-2.289136-3.542686-3.908006-5.952572-9.435906-14.051017-29.071106-43.289945-46.615691-85.017302C303.12632 377.282762 292.089963 323.884598 292.153408 270.493597c-0.271176-68.669986 20.122293-124.144438 60.614519-164.7963 23.217794-23.309892 52.362578-40.975227 86.62594-52.505841 34.737152-11.69025 66.013483-14.144138 86.133729-14.144138 37.479613 0 91.52246 8.05649 136.14475 46.438659 46.52257 40.016389 70.13229 102.245685 70.175269 184.969759 0.405229 62.266136-13.633508 156.023496-82.781378 249.182222-0.650823 0.876973-1.206478 1.623987-1.655709 2.241041-1.333368 1.830695-3.021823 3.373841-4.963035 4.538363-2.536776 2.221598-6.776334 13.634532-6.361895 28.91761 0.36225 13.352099 4.015454 20.539802 5.579065 22.084994 92.657306 39.641859 163.04133 81.213673 209.203696 123.56627 46.199205 42.386366 69.882604 87.010703 70.393233 132.63481 0.001023 0.061398 0.001023 0.12075 0.001023 0.182149 0.019443 43.249013-26.709315 83.298148-75.259054 112.771413-38.869263 23.597441-88.62241 38.256302-129.84323 38.257326-0.412392 0-0.821715-0.002047-1.231037-0.005117C692.755272 984.910727 644.667044 984.953705 571.997977 984.953705L571.997977 984.953705zM309.15564 951.057711c13.834076 0.020466 149.216463 0.12689 262.842337 0.12689 72.733535 0 120.813576-0.042979 142.900617-0.12689 0.065492-0.001023 0.132006-0.001023 0.197498 0l1.064238 0.005117c34.856879-0.001023 78.94398-13.093203 112.319112-33.353642 22.031782-13.374612 58.978253-42.039465 59.014068-83.800591-0.434905-35.891442-20.438495-72.243371-59.455113-108.039645C784.490579 685.914982 716.896088 646.236284 627.136785 607.933933c-0.466628-0.198521-0.923022-0.418532-1.370207-0.659009-14.452153-7.772011-23.0029-26.727735-23.460318-52.009538-0.358157-19.837814 4.676509-44.112684 19.531845-55.605436 0.036839-0.049119 0.073678-0.099261 0.11154-0.149403 63.608713-85.695754 76.508511-171.768085 76.128865-228.884944 0-0.035816 0-0.070608 0-0.105401C698.003809 92.080162 577.382615 72.815399 525.527596 72.815399c-21.663392 0-96.420003 4.090155-148.833747 56.71163-33.923624 34.057677-51.005674 81.470523-50.770314 140.919497-0.137123 115.02064 55.426357 197.759039 73.684186 224.948285 1.469468 2.187829 2.651386 3.947915 3.603061 5.429663 15.46932 14.632255 18.684548 46.570665 16.896832 65.593927-2.490727 26.5067-13.741979 37.080523-22.74298 41.285289-0.170892 0.078795-0.341784 0.155543-0.514723 0.230244-90.645486 38.696324-158.360727 78.057797-201.266933 116.989481-39.752376 36.07052-59.07649 71.688739-59.07649 108.886943-0.143263 40.981367 36.84107 69.571519 58.900481 82.971713C228.962204 937.166329 273.60189 950.614619 309.15564 951.057711L309.15564 951.057711z" p-id="20229" fill="#707070"></path></svg>