<?xml version="1.0" standalone="no"?><!DOCTYPE svg PUBLIC "-//W3C//DTD SVG 1.1//EN" "http://www.w3.org/Graphics/SVG/1.1/DTD/svg11.dtd"><svg t="1553322833829" class="icon" style="" viewBox="0 0 1024 1024" version="1.1" xmlns="http://www.w3.org/2000/svg" p-id="4227" xmlns:xlink="http://www.w3.org/1999/xlink" width="200" height="200"><defs><style type="text/css"></style></defs><path d="M966.4 934.4l-153.6-153.6c70.4-76.8 115.2-185.6 115.2-294.4 0-249.6-204.8-448-448-448s-448 204.8-448 448c0 249.6 204.8 448 448 448 108.8 0 211.2-38.4 294.4-108.8l153.6 153.6c6.4 6.4 12.8 6.4 25.6 6.4s19.2 0 25.6-6.4c0-12.8 0-32-12.8-44.8z m-876.8-448c0-211.2 172.8-384 384-384s384 172.8 384 384-172.8 384-384 384-384-172.8-384-384z" fill="#2c2c2c" p-id="4228"></path></svg>