<?xml version="1.0" standalone="no"?><!DOCTYPE svg PUBLIC "-//W3C//DTD SVG 1.1//EN" "http://www.w3.org/Graphics/SVG/1.1/DTD/svg11.dtd"><svg t="1553593011506" class="icon" style="" viewBox="0 0 1024 1024" version="1.1" xmlns="http://www.w3.org/2000/svg" p-id="12542" xmlns:xlink="http://www.w3.org/1999/xlink" width="200" height="200"><defs><style type="text/css"></style></defs><path d="M512.52 0a545.691 545.691 0 0 0-57.856 3.072c-45.44 5.248-90.24 16.256-132.736 33.152 0 0 345.856 340.352 354.688 353.28V26.496c-10.368-3.072-20.352-6.144-31.232-9.856C601.864 5.504 557.32 0 512.52 0z" fill="#F95452" p-id="12543"></path><path d="M873.48 148.352c-13.696-13.568-28.16-26.368-43.136-38.4-35.84-28.544-75.52-51.968-117.76-70.016 0 0 2.56 483.968 0 499.456l257.792-256.768c-4.736-9.856-10.368-19.2-15.616-28.544-22.4-38.272-48.896-74.112-81.28-105.728z" fill="#6467F0" p-id="12544"></path><path d="M986.504 322.688s-341.76 344.448-354.688 353.28H996.36c3.072-10.368 6.144-20.352 9.856-31.104 11.648-42.88 17.664-87.168 17.664-131.712 0-19.2-1.024-38.528-3.072-57.6-6.144-46.72-17.152-91.392-34.304-132.864z" fill="#5283F0" p-id="12545"></path><path d="M479.24 713.856l257.792 256.768c9.856-4.736 19.328-10.368 29.184-15.616 38.912-22.144 74.624-49.408 106.24-80.896 13.696-13.568 26.496-28.032 38.528-43.136 28.544-35.84 52.224-75.136 70.272-117.248 0 0.128-486.4 2.56-502.016 0.128z" fill="#00B1FE" p-id="12546"></path><path d="M347.4 633.344V996.48c10.368 3.072 21.376 6.144 31.232 9.856a506.954 506.954 0 0 0 132.224 17.536c19.328 0 38.656-1.024 57.856-3.072 45.44-5.248 90.24-16.512 132.736-33.152 0-0.896-345.216-341.76-354.048-354.304z" fill="#65D020" p-id="12547"></path><path d="M310.92 482.432L53.128 739.2c4.736 9.856 10.368 19.2 15.616 29.056 22.272 38.656 49.536 74.24 81.28 105.856 13.696 13.568 28.16 26.368 43.136 38.4 35.84 28.544 75.52 51.968 117.76 70.016 0.128-1.152-2.432-485.12 0-500.096z" fill="#9AD122" p-id="12548"></path><path d="M17.16 379.264C5.64 422.144-0.248 466.56 0.008 510.976c0 19.2 1.024 38.528 3.072 57.6 5.248 45.44 16.384 89.856 33.28 132.352 0 0 341.76-344.448 354.176-353.28H27.016c-3.584 10.752-7.168 20.608-9.856 31.616z" fill="#FFC817" p-id="12549"></path><path d="M254.728 70.016C215.944 92.032 180.36 119.296 149 150.912c-14.08 13.952-26.624 28.544-38.528 43.136-28.544 35.84-52.224 75.136-70.272 117.248 0 0 486.528-2.56 501.632 0L283.272 55.04c-9.216 4.608-19.2 9.728-28.544 14.976z" fill="#FF7612" p-id="12550"></path></svg>