<?xml version="1.0" standalone="no"?><!DOCTYPE svg PUBLIC "-//W3C//DTD SVG 1.1//EN" "http://www.w3.org/Graphics/SVG/1.1/DTD/svg11.dtd"><svg t="1553595937022" class="icon" style="" viewBox="0 0 1026 1024" version="1.1" xmlns="http://www.w3.org/2000/svg" p-id="19503" xmlns:xlink="http://www.w3.org/1999/xlink" width="200.390625" height="200"><defs><style type="text/css"></style></defs><path d="M898.048 258.048q23.552-1.024 46.592 9.216t40.96 27.136 28.672 39.424 10.752 46.08l0 390.144q0 24.576-10.752 47.104t-28.672 40.448-40.96 28.16-47.616 10.24l-697.344 0q-24.576 0-48.64-10.24t-42.496-27.648-29.696-40.448-11.264-48.64l0-381.952q0-22.528 10.752-45.568t28.672-41.472 39.936-30.208 44.544-11.776l63.488 0 13.312-83.968q3.072-20.48 18.432-32.768t34.816-12.288l456.704 0q19.456 0 34.304 10.752t16.896 34.304l14.336 83.968 54.272 0zM548.864 712.704q40.96 0 77.824-15.872t63.488-42.496 42.496-62.976 15.872-77.312-15.872-77.312-42.496-62.976-63.488-42.496-77.824-15.872-77.312 15.872-63.488 42.496-43.008 62.976-15.872 77.312 15.872 77.312 43.008 62.976 63.488 42.496 77.312 15.872z" p-id="19504"></path></svg>