<?xml version="1.0" standalone="no"?><!DOCTYPE svg PUBLIC "-//W3C//DTD SVG 1.1//EN" "http://www.w3.org/Graphics/SVG/1.1/DTD/svg11.dtd"><svg t="1553593138865" class="icon" style="" viewBox="0 0 1024 1024" version="1.1" xmlns="http://www.w3.org/2000/svg" p-id="17029" xmlns:xlink="http://www.w3.org/1999/xlink" width="200" height="200"><defs><style type="text/css"></style></defs><path d="M513.258667 138.944l105.92 127.850667 11.861333 14.314666 18.176 3.84 187.093333 38.976-70.72 157.397334-9.322666 20.736 8.512 21.077333 72.106666 177.130667-188.8 22.314666-23.658666 2.794667-13.696 19.498667-98.154667 140.693333-112.085333-144.554667-13.696-17.664-22.208-2.624-175.445334-20.138666 59.541334-167.082667 6.378666-17.898667-6.378666-17.898666-61.504-170.88 177.152-33.728 18.176-3.456 12.138666-13.973334 118.613334-136.725333M513.28 85.333333c-14.677333 0-29.376 6.058667-39.936 18.218667l-118.997333 137.173333-177.152 33.728a52.864 52.864 0 0 0-39.914667 69.674667L198.4 515.605333 138.88 682.666667a52.864 52.864 0 0 0 43.605333 70.272l175.829334 20.736 112.085333 144.554666c10.602667 13.653333 26.176 20.437333 41.749333 20.437334 16.384 0 32.746667-7.509333 43.264-22.421334l98.922667-140.736 188.8-22.314666a52.842667 52.842667 0 0 0 42.816-72.234667l-71.722667-177.813333 70.72-157.397334a52.842667 52.842667 0 0 0-37.269333-73.365333L660.266667 232.746667l-106.282667-128.277334A52.608 52.608 0 0 0 513.28 85.333333z" fill="#FFCD00" p-id="17030"></path><path d="M403.285333 323.648l90.474667 31.509333 17.450667 6.08 17.472-6.037333 91.093333-31.424 14.506667 85.418667 3.114666 18.325333 13.824 12.416 75.626667 67.968-72.405333 52.181333-18.453334 13.290667-3.178666 22.528-14.037334 99.584-91.413333-39.274667-21.866667-9.386666-21.589333 10.005333-78.805333 36.48-12.757334-93.184-3.029333-22.144-17.92-13.376-73.685333-54.954667 70.229333-59.776 14.464-12.309333 3.434667-18.688 17.450666-95.232m-34.752-68.096a8.384 8.384 0 0 0-8.234666 6.848l-26.944 146.922667-113.194667 96.341333a8.341333 8.341333 0 0 0 0.405333 13.034667l118.933334 88.704 21.013333 153.450666a8.384 8.384 0 0 0 11.776 6.442667l134.016-62.037333 145.472 62.506666a8.405333 8.405333 0 0 0 11.605333-6.528l22.250667-157.845333 117.674667-84.821333a8.32 8.32 0 0 0 0.725333-12.970667l-117.162667-105.301333-23.381333-137.706667a8.32 8.32 0 0 0-10.922667-6.528l-141.248 48.725333L371.221333 256a8.448 8.448 0 0 0-2.688-0.448z" fill="#FFCD00" p-id="17031"></path></svg>