<?xml version="1.0" standalone="no"?><!DOCTYPE svg PUBLIC "-//W3C//DTD SVG 1.1//EN" "http://www.w3.org/Graphics/SVG/1.1/DTD/svg11.dtd"><svg t="1553049451688" class="icon" style="" viewBox="0 0 1233 1024" version="1.1" xmlns="http://www.w3.org/2000/svg" p-id="10363" xmlns:xlink="http://www.w3.org/1999/xlink" width="240.8203125" height="200"><defs><style type="text/css"></style></defs><path d="M870.4 1024c-30.72 0-51.2-20.48-51.2-51.2v-102.4c0-87.04-66.56-153.6-153.6-153.6H256c-87.04 0-153.6 66.56-153.6 153.6v102.4c0 30.72-20.48 51.2-51.2 51.2s-51.2-20.48-51.2-51.2v-102.4c0-143.36 112.64-256 256-256h409.6c143.36 0 256 112.64 256 256v102.4c0 30.72-20.48 51.2-51.2 51.2zM460.8 512c-143.36 0-256-112.64-256-256s112.64-256 256-256 256 112.64 256 256-112.64 256-256 256z m0-409.6C373.76 102.4 307.2 168.96 307.2 256s66.56 153.6 153.6 153.6 153.6-66.56 153.6-153.6-66.56-153.6-153.6-153.6zM1177.6 1024c-30.72 0-51.2-20.48-51.2-51.2v-102.4c0-71.68-46.08-133.12-112.64-148.48-25.6-5.12-46.08-35.84-35.84-61.44 5.12-25.6 35.84-46.08 61.44-35.84 112.64 30.72 189.44 133.12 194.56 245.76v102.4c-5.12 30.72-25.6 51.2-56.32 51.2zM819.2 506.88c-20.48 0-46.08-15.36-51.2-40.96-5.12-25.6 10.24-56.32 35.84-61.44 56.32-15.36 97.28-56.32 112.64-112.64 20.48-81.92-30.72-163.84-112.64-189.44-25.6 0-40.96-30.72-35.84-56.32 5.12-25.6 35.84-46.08 61.44-35.84 138.24 35.84 220.16 174.08 184.32 312.32-25.6 92.16-92.16 163.84-184.32 184.32H819.2z" fill="#848484" p-id="10364"></path></svg>