<?xml version="1.0" standalone="no"?><!DOCTYPE svg PUBLIC "-//W3C//DTD SVG 1.1//EN" "http://www.w3.org/Graphics/SVG/1.1/DTD/svg11.dtd"><svg t="1553482489132" class="icon" style="" viewBox="0 0 1024 1024" version="1.1" xmlns="http://www.w3.org/2000/svg" p-id="23140" xmlns:xlink="http://www.w3.org/1999/xlink" width="200" height="200"><defs><style type="text/css"></style></defs><path d="M386 415.7c69 0 125-56 125-125s-56-125-125-125-125 56-125 125 56 125 125 125z m281.3-245.9c-22.3-5.7-35.7-28.4-30-50.7 5.7-22.3 28.4-35.7 50.7-30 92.2 23.6 156.7 106.7 156.7 201.8S780.2 469.1 688 492.7c-22.3 5.7-45-7.7-50.7-30-5.7-22.3 7.7-45 30-50.7 55.3-14.2 94-64 94-121.1s-38.7-107-94-121.1zM1011 874c0 23-18.7 41.7-41.7 41.7-23 0-41.7-18.7-41.7-41.7v-83.3c0-57-38.6-106.7-93.8-120.9-22.3-5.8-35.7-28.5-29.9-50.8 5.8-22.3 28.5-35.7 50.8-29.9 91.9 23.7 156.2 106.6 156.2 201.6V874zM386 499c-115.1 0-208.3-93.3-208.3-208.3S270.9 82.3 386 82.3c115.1 0 208.3 93.3 208.3 208.3S501.1 499 386 499z m375 375c0 23-18.7 41.7-41.7 41.7-23 0-41.7-18.7-41.7-41.7v-83.3c0-69-56-125-125-125H219.3c-69 0-125 56-125 125V874c0 23-18.7 41.7-41.7 41.7S11 897 11 874v-83.3c0-115.1 93.3-208.3 208.3-208.3h333.3c115.1 0 208.3 93.3 208.3 208.3V874z" fill="#ffffff" p-id="23141"></path></svg>