<?xml version="1.0" standalone="no"?><!DOCTYPE svg PUBLIC "-//W3C//DTD SVG 1.1//EN" "http://www.w3.org/Graphics/SVG/1.1/DTD/svg11.dtd"><svg t="1553591082649" class="icon" style="" viewBox="0 0 1024 1024" version="1.1" xmlns="http://www.w3.org/2000/svg" p-id="7794" xmlns:xlink="http://www.w3.org/1999/xlink" width="200" height="200"><defs><style type="text/css"></style></defs><path d="M0 0h1024v1024H0V0z" fill="#358ADB" p-id="7795"></path><path d="M451.203657 823.676343l-236.397714-245.511314c-5.997714-6.100114-10.005943-14.204343-10.005943-26.389943 0-8.118857 4.008229-16.237714 10.020571-22.3232l300.485486-296.2432c6.012343-4.052114 12.024686-8.118857 20.041143-8.118857L799.773257 204.8c10.020571 0 20.041143 4.052114 26.038857 10.152229 6.012343 8.104229 8.016457 16.237714 8.016457 26.375314l-28.042971 265.801143c-2.004114 8.133486-4.008229 14.218971-10.020571 20.304457L495.279543 823.690971c-6.012343 6.085486-14.0288 10.1376-22.045257 10.1376-8.001829 0-16.018286-4.052114-22.030629-10.152228z m290.479543-470.747429c0-34.494171-26.038857-60.869486-60.1088-60.869485-34.055314 0-60.094171 26.375314-60.094171 60.854857 0 34.5088 26.038857 60.884114 60.094171 60.884114 34.055314 0 60.1088-26.375314 60.1088-60.869486z" fill="#FFFFFF" p-id="7796"></path></svg>