<?xml version="1.0" standalone="no"?><!DOCTYPE svg PUBLIC "-//W3C//DTD SVG 1.1//EN" "http://www.w3.org/Graphics/SVG/1.1/DTD/svg11.dtd"><svg t="1553049526764" class="icon" style="" viewBox="0 0 1024 1024" version="1.1" xmlns="http://www.w3.org/2000/svg" p-id="11908" xmlns:xlink="http://www.w3.org/1999/xlink" width="200" height="200"><defs><style type="text/css"></style></defs><path d="M65.075 512.001c0 246.913 199.987 446.923 446.924 446.923 246.939 0 446.925-199.987 446.925-446.923 0-246.938-200.011-446.925-446.925-446.925-246.914 0-446.924 199.987-446.924 446.925m37.245 0c0-226.251 183.407-409.682 409.68-409.682 226.25 0 409.683 183.431 409.683 409.682 0 92.172-30.54 177.472-81.937 245.783-26.072-121.03-117.522-217.863-235.572-251.574 56.25-32.03 94.022-92.558 94.022-161.806 0-102.793-83.402-186.219-186.194-186.219-102.793 0-186.218 83.426-186.218 186.219 0 69.273 37.796 129.775 94.045 161.806-118.074 33.686-209.502 130.544-235.571 251.574-51.397-68.337-81.937-153.613-81.938-245.783m709.288 279.326c-74.68 80.256-181.387 130.353-299.631 130.353-118.243 0-224.952-50.097-299.631-130.353h3.916C234.715 644.396 360.022 530.598 512 530.598c151.931 0 277.286 113.798 295.715 260.729h3.893M363.026 344.404c0-82.297 66.653-148.976 148.974-148.976 82.322 0 148.977 66.679 148.977 148.976 0 82.296-66.654 148.975-148.977 148.975-82.32 0-148.974-66.679-148.974-148.975m0 0z" p-id="11909"></path></svg>