<?xml version="1.0" standalone="no"?><!DOCTYPE svg PUBLIC "-//W3C//DTD SVG 1.1//EN" "http://www.w3.org/Graphics/SVG/1.1/DTD/svg11.dtd"><svg t="1553049486749" class="icon" style="" viewBox="0 0 1024 1024" version="1.1" xmlns="http://www.w3.org/2000/svg" p-id="11158" xmlns:xlink="http://www.w3.org/1999/xlink" width="200" height="200"><defs><style type="text/css"></style></defs><path d="M717.77969561 118.90699235s167.73249897 75.25682764 215.00399705 258.01233011l-215.00399705 185.9816814V118.90699235zM690.8889625 107.04591007v287.03242997L383.41150989 89.82706638c165.59870068-58.04019972 307.47523682 17.21441213 307.47523682 17.21441214v0.00443155zM351.1674469 99.50117158l198.87974976 202.10149712H123.26538151c0 0.00221578 61.26416285-137.55576079 227.90206539-202.10149712zM104.95415716 331.7771911h291.35763687L85.60373096 620.94785091s-48.42592062-154.77903606 19.3504262-289.17065981zM302.80578397 890.76586875s-127.94591326-43.99435617-211.83986003-239.70553734l211.83986003-188.17087423v427.87641157zM332.91604869 906.88790024V637.06988242l294.63477878 292.44780174c-186.04150754 46.234512-294.6347788-22.6297839-294.63477878-22.62978392zM656.45792243 919.83914736l-187.01866747-191.33279548h418.20009057s-50.49546123 135.48178862-231.1814231 191.33279548zM910.26912943 691.94372932H627.54861169l309.61125088-288.18906828s54.81623657 88.15268021-26.89073314 288.18906828z" p-id="11159"></path></svg>